<?xml version="1.0" encoding="UTF-8"?><svg id="Layer_1" xmlns="http://www.w3.org/2000/svg" viewBox="0 0 2500 2500"><defs><style>.cls-1{fill:#f4e5ac;}</style></defs><path class="cls-1" d="M882.19,827.21c-5.13-20.41-10.2-36.74-15.01-49.8-2.92-7.93-12.89-10.48-19.35-5.03-330.64,279.26-387.38,554.82-394.63,599.56-.63,3.88.8,7.8,3.78,10.36l4.1,3.54c5.81,5,14.82,2.9,17.79-4.16,129.47-308.12,328.99-469.21,401.07-519.85,5.38-3.78,7.93-10.46,6.47-16.87-1.37-6.01-2.78-11.93-4.24-17.74Z"/><path class="cls-1" d="M1063.27,629.35c-11.55,31.57-26.73,62.2-10.97,132.62,1.05,4.71,6.01,7.4,10.57,5.83,116.95-40.36,236.16-46.97,344.44-14.27,6.53,1.97,13.63.43,18.82-4,54.97-47.01,100.34-87.63,111.29-103.46,8.59-12.42,13.27-36.85,18.23-62.71,4.37-22.81,9.34-48.67,18.3-75.64,1.58-4.76-1.49-9.83-6.46-10.51-151.53-20.71-314.61,13.63-468.71,94.4-15.74,8.25-28.26,21.54-35.51,37.76h0Z"/><path class="cls-1" d="M2104.68,1138.55c2.7,40.43-26.08,76.12-66.14,81.97-69.66,10.16-177.16,25.75-247.19,35.6h-.09c-48.56,1.99-67.32-18.11-74.29-65.27-.65-6.66-1.38-13.23-2.2-19.79-.02-.37-.08-.78-.14-1.14-13.45-111.16-45.4-211.01-107.36-287.2-12.7-15.64-11.05-38.56,3.48-52.59.44-.48.88-.91,1.36-1.34,54.59-52.68,87.66-58.23,119.49-59.56,6.17-.26,12.44-.34,19.13-.44,7.1-.11,14.47-.24,22.19-.56,36.81-1.54,81.93-8.06,137.51-44.75l.31-.2c17.34-11.45,40.69-7.39,53.03,9.37,83,112.55,130.51,250.41,140.92,405.9Z"/><path class="cls-1" d="M857.68,1171.76c-3.75,3.59-8.59,5.68-13.63,5.9-5.4.23-10.59-1.8-14.24-5.55l-93.01-96.3c-3.43-3.53-5.28-8.24-5.19-13.28.09-5.4,2.47-10.72,6.51-14.6,3.75-3.59,8.59-5.69,13.63-5.9,5.4-.23,10.59,1.8,14.24,5.55l93.01,96.29c3.43,3.53,5.28,8.24,5.19,13.28-.1,5.4-2.47,10.72-6.51,14.6Z"/><path class="cls-1" d="M1170.44,788.53h0c-10.25-.12-19.49,7.69-21.04,17.78l-32.1,177.88c-.82,5.37.65,10.78,4.05,14.83,3.41,4.07,8.5,6.47,13.98,6.59h.21c10.25.12,19.49-7.69,21.04-17.78l32.09-177.88c.82-5.37-.65-10.78-4.05-14.83-3.41-4.06-8.5-6.46-14.18-6.59Z"/><path class="cls-1" d="M1407.13,1125.37c5.04-.21,9.88-2.31,13.63-5.9l154.1-122.72c4.04-3.87,6.42-9.19,6.51-14.6.09-5.04-1.75-9.75-5.19-13.28-3.65-3.75-8.85-5.77-14.24-5.55-5.04.21-9.88,2.31-13.63,5.9l-154.11,122.73c-4.04,3.88-6.42,9.2-6.51,14.6-.09,5.04,1.76,9.75,5.19,13.27,3.65,3.75,8.85,5.77,14.24,5.55Z"/><path class="cls-1" d="M609.6,1366.33l72.57-7.68c2.53-.29,4.95-1.07,7.21-2.34,6.57-3.68,10.78-11.02,10.72-18.7-.04-5.67-2.4-10.99-6.47-14.59-3.86-3.42-9.02-5.04-14.16-4.45l-72.57,7.68c-2.53.29-4.95,1.07-7.21,2.34-6.57,3.68-10.78,11.02-10.72,18.7.04,5.67,2.4,10.99,6.47,14.59,3.86,3.41,9.02,5.04,14.16,4.45Z"/><path class="cls-1" d="M1530.63,1222.34c-10.67,1.2-18.88,10.15-18.71,20.4.15,8.22,5.7,15.23,13.81,17.44,2.48.68,5.07.87,7.69.58l86.67-13.74c10.67-1.2,18.89-10.16,18.7-20.39-.14-8.22-5.69-15.24-13.81-17.45-2.49-.68-5.07-.87-7.7-.58l-86.67,13.74Z"/><path class="cls-1" d="M621.25,1596.16c13.09-16.07,21.89-35.99,26.42-59.74,4.27-22.69,3.58-41.49-2.22-56.35-5.75-14.87-15.52-26.23-29.3-34.18-13.78-7.91-31.21-12.91-52.22-15.06-21.05-2.1-44.44-1.97-70.26.4-43.6,4.01-76.31,9.89-98.11,17.55-21.74,7.7-33.75,17.48-36.02,29.33-1.3,6.84-1.33,13.07-.18,18.59,1.19,5.56,2.48,11.22,3.82,16.92,1.34,5.74,2.5,11.99,3.44,18.8.94,6.8.45,15.24-1.48,25.34l-28.75,151.78c-1.93,10.1-4.66,18.76-8.24,26.01-3.63,7.2-7.22,13.95-10.82,20.1-3.6,6.15-7.07,12.07-10.31,17.67-3.33,5.64-5.65,12.05-7.03,19.21-1.09,5.79-1,10.73.3,14.87,1.26,4.14,4.43,7.43,9.56,9.99,5.08,2.52,12.24,4.04,21.46,4.61,9.21.57,21.24.18,36-1.18,14.81-1.36,27.18-3.22,37.12-5.55,9.98-2.37,18.08-5.3,24.33-8.89,6.3-3.59,10.85-7.65,13.8-12.14,2.9-4.54,4.87-9.65,5.96-15.44,1.39-7.21,1.46-13.39.18-18.59-1.24-5.2-2.57-10.67-3.9-16.36-1.34-5.7-2.45-12-3.39-18.8-.94-6.8-.49-15.23,1.44-25.34l5.32-28.11,15.35-1.41,45,107.83c3.02,7.5,8.15,13.13,15.22,16.9,7.16,3.77,15.42,5.22,24.93,4.33l19.93-1.81c25.77-2.37,44.98-5.91,57.63-10.66,12.64-4.71,20.01-12.62,22.11-23.78,1.47-7.58.31-13.92-3.35-19.07-3.71-5.15-8.52-10.61-14.52-16.45-5.96-5.8-12.49-12.64-19.58-20.48-7.1-7.84-13.54-18.03-19.39-30.56l-18.1-40.29c18.81-10.54,34.78-23.91,47.87-39.97ZM539.04,1549.12c-2.18,11.48-8.09,21.52-17.74,30.02-9.6,8.5-21.28,13.37-34.95,14.66l-13.62,1.25c-3.06.28-5.32-.59-6.77-2.58-1.5-1.99-1.87-4.96-1.12-8.91l10.52-55.62c1.6-8.31,5.96-12.78,13.18-13.46l13.07-1.19c14.44-1.35,24.88,1.12,31.3,7.46,6.47,6.29,8.47,15.74,6.13,28.36Z"/><path class="cls-1" d="M1026.19,1497.95c-3.96-22.45-11.99-41.58-24.07-57.48-12.09-15.86-28.18-27.8-48.28-35.87-20.1-8.03-43.81-10.82-71.09-8.28-27.33,2.49-52.93,9.85-76.84,21.94-23.96,12.14-45.2,27.52-63.83,46.25-18.67,18.73-34.36,40.06-47.08,64.08-12.76,23.98-21.66,49.31-26.73,75.95-4.94,26.31-5.52,50.77-1.6,73.4,3.92,22.64,11.95,41.9,24.03,57.76,12.09,15.9,28.18,27.84,48.28,35.87,20.1,8.07,43.81,10.82,71.09,8.33,27.33-2.54,52.97-9.85,76.88-21.99,23.87-12.13,45.2-27.52,63.83-46.25,18.62-18.73,34.32-40.15,47.12-64.31,12.76-24.21,21.66-49.45,26.6-75.72,5.07-26.64,5.61-51.23,1.69-73.68ZM916.92,1636.5c-4.96,17.3-12.99,32.08-24.08,44.41-11.09,12.37-25.16,19.34-42.25,20.92-17.05,1.58-31.54-2.75-43.39-12.97-11.85-10.23-20.92-23.48-27.15-39.67-6.23-16.23-9.75-34.16-10.5-53.74-.8-19.53,1.3-37.97,6.27-55.22,4.96-17.25,12.94-32.08,24.03-44.41,11.14-12.37,25.2-19.34,42.29-20.92,17.05-1.58,31.49,2.75,43.39,12.97,11.85,10.23,20.87,23.48,27.15,39.72,6.24,16.23,9.75,34.11,10.51,53.69.75,19.53-1.31,37.97-6.27,55.22Z"/><path class="cls-1" d="M1362.46,1351.97c24.27-2.24,41.03-1.14,50.25,3.32,9.22,4.45,12.64,12.99,10.25,25.59-1.37,7.21-3.73,13.8-7.1,19.76-3.37,5.98-6.87,12.14-10.49,18.48-3.63,6.36-7.29,13.41-11,21.19-3.71,7.77-6.59,17.06-8.63,27.87l-22.2,117.23c-9.41,49.7-29.61,87.92-60.58,114.67-30.98,26.75-70.74,42.36-119.3,46.85-50.46,4.66-87.03-3.98-109.7-25.95-22.68-21.96-29.34-57.61-20-106.96l22.92-121.01c1.91-10.08,2.39-18.53,1.45-25.34-.95-6.81-2.09-13.07-3.43-18.79-1.35-5.71-2.6-11.34-3.79-16.9-1.19-5.55-1.13-11.75.17-18.59,1.09-5.76,3.09-10.9,5.99-15.41,2.9-4.52,7.49-8.56,13.76-12.15,6.27-3.58,14.28-6.54,24.04-8.86,9.75-2.31,22.03-4.16,36.83-5.53,14.8-1.37,26.89-1.77,36.3-1.23,9.4.55,16.66,2.09,21.77,4.62,5.11,2.54,8.3,5.87,9.57,10,1.26,4.13,1.36,9.08.26,14.84-1.3,6.85-3.63,13.26-7,19.22-3.37,5.97-6.85,12.04-10.44,18.21-3.6,6.17-7.19,12.87-10.8,20.11-3.61,7.23-6.37,15.9-8.27,25.98l-22.92,121.01c-7.85,41.42,7.38,60.35,45.71,56.81,20.49-1.89,36.99-8.37,49.53-19.44,12.53-11.06,20.81-27.22,24.84-48.47l19.44-102.64c1.62-12.53,1.38-23.03-.74-31.51-2.13-8.47-4.58-16.2-7.35-23.2-2.78-6.99-5.24-13.66-7.39-20.02-2.15-6.34-2.45-13.66-.88-21.95,2.32-12.24,9.79-21.69,22.42-28.34,12.62-6.65,31.46-11.14,56.5-13.45Z"/><path class="cls-1" d="M1724.45,1321.17c47.42-4.38,68.92,5.13,64.48,28.54-1.37,7.21-3.73,13.8-7.1,19.76-3.37,5.97-6.97,12.15-10.78,18.51-3.82,6.37-7.49,13.43-11,21.19-3.52,7.76-6.3,17.04-8.35,27.84l-39.91,210.69c-1.3,6.84-3.86,13.45-7.67,19.82-3.82,6.37-8.52,12.02-14.12,16.96-5.6,4.95-11.86,8.97-18.78,12.09-6.93,3.11-14,5.01-21.2,5.68-9.87.91-18.35-.52-25.47-4.28-7.12-3.76-12.39-9.38-15.82-16.85l-83.26-195.06-18.32,96.7c-1.63,12.54-1.39,23.04.74,31.51,2.11,8.48,4.56,16.21,7.34,23.2,2.77,7,5.24,13.67,7.39,20.02,2.15,6.35,2.44,13.67.88,21.95-1.64,8.64-5.18,15.52-10.62,20.62-5.44,5.1-11.78,9.05-19.02,11.84-7.24,2.79-14.89,4.83-22.96,6.1-8.07,1.28-15.52,2.23-22.35,2.86-25.42,2.35-43.12,1.33-53.1-3.06-9.99-4.38-13.78-12.87-11.39-25.48,1.36-7.2,3.73-13.79,7.1-19.76,3.37-5.97,6.86-12.13,10.49-18.48,3.62-6.35,7.29-13.41,11-21.19,3.71-7.77,6.59-17.06,8.63-27.87l25.99-137.22c2.05-10.8,2.65-19.88,1.8-27.24-.84-7.35-1.92-13.97-3.23-19.87-1.31-5.89-2.55-11.62-3.74-17.17-1.19-5.55-1.1-11.93.27-19.13,2.18-11.52,9.05-20.74,20.61-27.65,11.56-6.91,30.61-11.59,57.17-14.04l31.3-2.89c9.86-.91,18.6.67,26.22,4.74,7.61,4.07,13.1,10.03,16.47,17.85l62.15,147.11,9.52-50.24c1.62-12.53,1.38-23.03-.74-31.51-2.13-8.47-4.58-16.2-7.35-23.21-2.78-6.99-5.24-13.66-7.39-20.02-2.15-6.34-2.45-13.66-.88-21.95,1.09-5.76,3.09-10.9,5.99-15.41,2.9-4.52,7.3-8.55,13.2-12.1,5.89-3.55,13.33-6.45,22.33-8.7,8.99-2.24,20.13-3.98,33.42-5.21Z"/><path class="cls-1" d="M2118.03,1390.69c-5.2-22.7-15.28-41.43-30.18-56.14-14.95-14.71-34.36-25.22-58.32-31.53-24-6.22-51.91-7.93-83.76-4.95-25.04,2.27-46.69,5.25-64.89,8.91-18.2,3.61-32.82,7.85-43.81,12.8-15.03,6.67-23.45,14.74-25.21,24.11-1.3,6.84-1.38,13.02-.18,18.59,1.15,5.56,2.44,11.17,3.77,16.87,1.34,5.74,2.5,11.99,3.44,18.8.94,6.8.45,15.28-1.44,25.34l-28.75,151.78c-1.93,10.1-4.71,18.76-8.29,26.01-3.63,7.25-7.22,13.95-10.82,20.1-3.55,6.2-7.02,12.07-10.31,17.67-3.33,5.64-5.65,12.05-6.99,19.21-4.36,23.05,35.92,30.68,120.92,22.79,36.79-3.39,69.24-11.32,97.31-23.81,28.07-12.53,52.24-28.28,72.41-47.31,20.18-19.03,36.37-40.55,48.54-64.47,12.17-23.97,20.79-49.07,25.74-75.33,5.74-30.27,6.01-56.77.81-79.43ZM2008.72,1482.27c-3.02,15.84-7.39,30.57-13.14,44.17-5.76,13.65-12.83,25.54-21.3,35.71-8.43,10.13-17.99,18.3-28.64,24.39-10.65,6.09-22.26,9.73-34.78,10.91l-11.93,1.08c-3.06.28-5.32-.64-6.73-2.81-1.5-2.13-1.83-5.23-1.07-9.18l36.92-195.04c.75-3.95,2.3-7.18,4.64-9.69,2.34-2.51,5.01-3.93,8.08-4.22l11.93-1.08c15.58-1.46,27.57,1.08,36.06,7.56,8.44,6.44,14.59,14.9,18.39,25.36,3.8,10.46,5.56,22.24,5.33,35.34-.23,13.1-1.52,25.61-3.74,37.51Z"/><path class="cls-1" d="M293.43,2012.89c-5.11.47-8.79-.51-11.04-2.94-2.25-2.43-2.91-6.14-1.96-11.12l18.85-99.5-36.46,3.37c-4.42.41-7.59-.39-9.52-2.4-1.93-2.01-2.5-5.05-1.73-9.11.75-3.93,2.49-7.09,5.25-9.47,2.76-2.38,6.34-3.77,10.76-4.18l105.23-9.73c4.28-.4,7.39.38,9.33,2.33,1.94,1.94,2.54,4.88,1.79,8.82-.77,4.06-2.54,7.32-5.31,9.77-2.77,2.45-6.3,3.86-10.58,4.26l-36.66,3.39-18.85,99.5c-.94,4.98-3.02,8.94-6.22,11.88-3.2,2.94-7.5,4.65-12.88,5.15Z"/><path class="cls-1" d="M389.54,2004.01c-5.11.47-8.79-.51-11.04-2.94-2.26-2.43-2.91-6.14-1.96-11.12l20.97-110.71c.97-5.11,3.08-9.11,6.34-11.98,3.26-2.88,7.44-4.55,12.55-5.03,5.25-.48,9,.46,11.27,2.82,2.26,2.37,2.91,6.11,1.95,11.22l-7.93,41.88,67.74-6.26,7.93-41.88c.97-5.11,3.11-9.11,6.44-11.99,3.33-2.88,7.61-4.57,12.86-5.05s8.79.48,11.06,2.84c2.26,2.37,2.91,6.11,1.95,11.22l-20.97,110.71c-.94,4.98-3.05,8.95-6.32,11.89-3.27,2.94-7.46,4.65-12.57,5.12-5.25.49-9.03-.49-11.35-2.91-2.32-2.42-3.01-6.13-2.07-11.11l8.27-43.65-67.74,6.26-8.27,43.65c-.94,4.98-3.02,8.94-6.22,11.88-3.2,2.94-7.5,4.65-12.88,5.15Z"/><path class="cls-1" d="M552.24,1987.42c-5.39.5-9.27-.5-11.65-2.98-2.38-2.48-3.07-6.35-2.08-11.59l20.15-106.38c.99-5.24,3.2-9.37,6.62-12.4,3.42-3.02,7.83-4.78,13.21-5.28l72.29-6.68c4.14-.38,7.09.34,8.85,2.18,1.75,1.84,2.27,4.65,1.55,8.45-.75,3.93-2.38,7.02-4.91,9.24-2.53,2.23-5.86,3.54-10,3.92l-58.21,5.38-6.15,32.45,53.65-4.96c4.28-.4,7.26.33,8.95,2.17,1.69,1.84,2.16,4.73,1.41,8.66-.72,3.8-2.31,6.82-4.77,9.04-2.46,2.23-5.83,3.53-10.11,3.93l-53.65,4.96-6.59,34.8,58.21-5.38c4.14-.38,7.09.34,8.85,2.18,1.75,1.84,2.26,4.72,1.52,8.65-.72,3.8-2.34,6.82-4.87,9.05-2.53,2.23-5.86,3.54-10,3.92l-72.29,6.68Z"/><path class="cls-1" d="M903.86,2066.72c5.47-2.41,11.09-3.88,16.88-4.42,9.52-.88,17.48,1.24,23.87,6.36,6.38,5.12,8.57,13.01,6.55,23.67-1.71,9.05-6.59,17.99-14.61,26.82-8.03,8.83-18.41,16.86-31.14,24.06-12.74,7.21-27.27,13.32-43.59,18.31-16.33,5-33.51,8.34-51.54,10-21.78,2.01-42.07.56-60.86-4.37-18.8-4.93-34.42-13.8-46.87-26.61-12.45-12.81-21.13-29.71-26.01-50.68-4.89-20.97-4.49-46.48,1.2-76.52,4.53-23.91,12-46.58,22.41-68.01,10.41-21.43,23.64-40.51,39.68-57.23,16.03-16.72,34.95-30.52,56.75-41.43,21.79-10.9,46.29-17.61,73.53-20.13,22.79-2.11,41.91-.62,57.33,4.46,15.41,5.08,27.45,12.15,36.11,21.18,8.65,9.04,14.19,19.09,16.61,30.12,2.42,11.05,2.09,21.63-1,31.75-3.09,10.13-8.75,18.83-16.98,26.09-8.24,7.27-18.65,11.48-31.23,12.65l-1.02.09c-11.57,1.07-20.81.42-27.72-1.96-6.9-2.38-12.4-5.59-16.47-9.67-4.08-4.06-7.34-8.52-9.75-13.38-2.43-4.85-5.34-9.34-8.73-13.48-3.41-4.12-7.62-7.46-12.65-10.02-5.04-2.55-12.32-3.38-21.84-2.5-14.64,1.35-27.8,9.08-39.5,23.17-11.7,14.1-19.6,31.97-23.7,53.61-7.4,39.09-4.46,67.23,8.84,84.4,13.3,17.18,33.73,24.5,61.29,21.95,18.38-1.7,39.76-7.79,64.16-18.31Z"/><path class="cls-1" d="M1216.28,1987.37c8.17-.75,14.1,1.87,17.82,7.88,3.7,6.01,4.49,14.66,2.35,25.97l-15.05,79.47c-1.47,7.75-5.71,14.65-12.7,20.69-7,6.05-14.58,9.44-22.75,10.2l-162.33,15c-5.79.54-12.48,1-20.07,1.38-7.6.39-14.61-.08-21.05-1.39-6.45-1.31-11.63-3.93-15.57-7.85-3.94-3.92-5.17-9.76-3.7-17.51,1.22-6.46,3.33-12.28,6.32-17.49,2.99-5.19,6.09-10.56,9.32-16.1,3.22-5.54,6.45-11.55,9.68-18.03,3.24-6.49,5.71-14.25,7.42-23.3l24.6-129.87c1.71-9.04,2.15-16.62,1.3-22.74-.85-6.11-1.88-11.73-3.07-16.86-1.21-5.12-2.34-10.18-3.4-15.16-1.06-4.97-1.01-10.54.15-16.68.98-5.16,2.77-9.78,5.38-13.83,2.6-4.05,6.72-7.68,12.35-10.9,5.62-3.21,12.81-5.86,21.56-7.94,8.75-2.07,19.76-3.73,33.04-4.96,13.27-1.23,24.12-1.59,32.56-1.1,8.43.49,14.94,1.88,19.53,4.14,4.59,2.28,7.44,5.26,8.58,8.97,1.13,3.7,1.22,8.15.24,13.31-1.16,6.14-3.26,11.89-6.28,17.24-3.02,5.36-6.15,10.8-9.36,16.34-3.23,5.54-6.45,11.55-9.69,18.04-3.23,6.49-5.71,14.26-7.42,23.3l-16.89,89.16c-4.77,25.2-5.77,43.7-2.99,55.5,2.78,11.81,10.46,17.12,23.06,15.96l2.04-.19c8.56-1.1,16.2-3.88,22.89-8.31,6.68-4.43,12.66-9.5,17.93-15.23,5.26-5.72,10.19-11.89,14.79-18.51,4.59-6.61,8.92-12.64,12.96-18.1,4.04-5.45,8.26-10.12,12.69-14.03,4.41-3.9,9-6.07,13.77-6.51Z"/><path class="cls-1" d="M1580.5,1864.9c-3.55-20.12-10.72-37.3-21.59-51.53-10.82-14.28-25.25-25.01-43.27-32.2-18.02-7.24-39.31-9.7-63.8-7.45-24.49,2.26-47.5,8.84-68.91,19.7-21.46,10.9-40.58,24.69-57.27,41.46-16.74,16.82-30.82,35.97-42.25,57.5-11.43,21.53-19.41,44.24-23.94,68.12-4.44,23.61-4.97,45.54-1.46,65.85,3.51,20.35,10.73,37.58,21.59,51.8,10.82,14.23,25.25,25.01,43.27,32.2,18.02,7.24,39.3,9.7,63.8,7.45,24.49-2.3,47.49-8.84,68.95-19.74,21.42-10.86,40.54-24.65,57.23-41.46,16.74-16.77,30.82-36.01,42.29-57.68,11.43-21.71,19.41-44.33,23.9-67.93,4.48-23.88,5.01-45.91,1.45-66.08ZM1482.47,1989.2c-4.4,15.46-11.63,28.77-21.55,39.83-9.97,11.07-22.63,17.33-37.94,18.74-15.31,1.41-28.29-2.48-38.88-11.63-10.64-9.2-18.77-21.05-24.38-35.6-5.61-14.55-8.73-30.61-9.45-48.17-.67-17.57,1.24-34.08,5.63-49.58,4.45-15.46,11.63-28.72,21.6-39.83,9.97-11.07,22.58-17.33,37.89-18.74,15.35-1.41,28.29,2.48,38.93,11.68,10.64,9.15,18.72,21,24.33,35.55,5.61,14.6,8.77,30.65,9.45,48.17.72,17.56-1.19,34.08-5.63,49.58Z"/><path class="cls-1" d="M1821.66,1981.88c5.47-2.41,11.09-3.88,16.88-4.42,9.52-.88,17.48,1.24,23.87,6.36,6.38,5.12,8.57,13.01,6.55,23.67-1.71,9.05-6.59,17.99-14.61,26.82-8.03,8.83-18.41,16.86-31.14,24.06-12.74,7.21-27.27,13.32-43.59,18.31-16.33,5-33.51,8.34-51.54,10-21.78,2.01-42.07.56-60.86-4.37-18.8-4.93-34.42-13.8-46.87-26.61-12.45-12.81-21.13-29.71-26.01-50.68-4.89-20.97-4.49-46.48,1.2-76.52,4.53-23.91,12-46.58,22.41-68.01,10.41-21.43,23.63-40.51,39.68-57.23,16.03-16.72,34.95-30.52,56.75-41.43,21.79-10.9,46.29-17.61,73.52-20.13,22.8-2.11,41.91-.62,57.33,4.46,15.42,5.08,27.45,12.15,36.11,21.18,8.65,9.04,14.19,19.09,16.61,30.12,2.42,11.05,2.09,21.63-1,31.75-3.09,10.13-8.75,18.83-16.98,26.09-8.24,7.27-18.65,11.48-31.23,12.65l-1.02.09c-11.57,1.07-20.81.42-27.72-1.96-6.91-2.38-12.4-5.59-16.47-9.67-4.08-4.06-7.34-8.52-9.75-13.38-2.43-4.85-5.34-9.34-8.73-13.48-3.4-4.12-7.62-7.46-12.65-10.02-5.04-2.55-12.32-3.38-21.84-2.5-14.64,1.35-27.8,9.08-39.5,23.17-11.7,14.1-19.6,31.97-23.7,53.61-7.4,39.09-4.46,67.23,8.84,84.4,13.3,17.18,33.73,24.5,61.29,21.95,18.38-1.7,39.76-7.79,64.15-18.31Z"/><path class="cls-1" d="M2153.24,1936.47c5.22,11.26,11.02,20.33,17.42,27.19,6.39,6.87,12.27,12.91,17.63,18.13,5.36,5.22,9.69,10.13,13,14.75,3.3,4.62,4.35,10.15,3.12,16.61-1.96,10.34-8.6,17.62-19.93,21.84-11.33,4.22-28.57,7.4-51.71,9.54l-17.87,1.65c-8.51.79-15.95-.5-22.33-3.89-6.38-3.37-10.94-8.43-13.68-15.16l-38.63-92.6-33.2,34.97c-.26,6.69.14,12.53,1.2,17.5,1.06,4.98,2.1,9.65,3.12,13.99,1.01,4.36,1.86,8.72,2.53,13.1.68,4.39.49,9.32-.55,14.81-.98,5.17-2.78,9.78-5.38,13.83-2.61,4.05-6.72,7.69-12.35,10.9-5.62,3.22-12.9,5.87-21.82,7.97-8.92,2.09-20.02,3.75-33.29,4.98-13.27,1.23-24.04,1.58-32.3,1.08-8.27-.51-14.69-1.89-19.27-4.17-4.59-2.27-7.45-5.26-8.58-8.97-1.14-3.7-1.22-8.14-.24-13.31,1.22-6.46,3.23-12.2,6.02-17.22,2.78-5.02,5.79-10.3,9.02-15.83,3.22-5.53,6.45-11.55,9.69-18.04,3.24-6.49,5.88-14.27,7.93-23.35l25.61-135.2c1.37-9.01,1.64-16.58.79-22.69-.85-6.11-1.88-11.73-3.08-16.86-1.21-5.12-2.25-10.18-3.14-15.18-.9-4.99-.76-10.56.4-16.7.98-5.16,2.77-9.78,5.38-13.83,2.6-4.05,6.72-7.68,12.35-10.9,5.62-3.21,12.81-5.86,21.56-7.94,8.75-2.07,19.76-3.73,33.04-4.96,13.27-1.23,24.12-1.59,32.56-1.1,8.43.49,14.94,1.88,19.53,4.14,4.59,2.28,7.44,5.26,8.58,8.97,1.13,3.7,1.22,8.15.24,13.31-1.16,6.14-3.18,11.88-6.02,17.22-2.85,5.34-5.89,10.78-9.11,16.31-3.23,5.54-6.45,11.55-9.68,18.03-3.24,6.49-5.89,14.28-7.93,23.35l-6.88,36.34,26.3-27.66c11.27-11.83,19.95-21.52,26.07-29.07,6.11-7.54,10.74-14.32,13.88-20.33,3.14-6,5.42-11.85,6.83-17.53,1.4-5.68,2.85-12.41,4.32-20.16,1.96-10.33,9.9-18.77,23.85-25.3,13.94-6.52,32.82-10.89,56.65-13.09,23.82-2.2,40.77-1.22,50.85,2.92,10.07,4.15,14.32,10.42,12.73,18.82-1.41,7.44-4.87,13.78-10.38,19.05-5.51,5.27-12.51,10.84-20.97,16.7-8.47,5.86-18.04,12.7-28.71,20.51-10.68,7.82-22.08,18.15-34.21,31.01-.68.06-.62-.26.18-.97l-38.21,40.19,37.08,82.27Z"/><path class="cls-1" d="M633.35,2032.58l1.28-8.57c.73-4.89-2.77-8.46-7.82-7.97l-362.14,35.1c-5.05.49-9.73,4.85-10.46,9.74l-1.28,8.57c-.73,4.89,2.77,8.46,7.82,7.97l362.14-35.1c5.05-.49,9.73-4.85,10.46-9.74Z"/><path class="cls-1" d="M1059.69,1082.54c21.07-17.45,33.27-24.62,27.67-51.53-14.86-53.75-39.45-127.68-68.01-205.52-40-109.03-22.49-181.22,9.67-241.72,29.97-56.37-14.58-161.67-44.39-208.3-9.96-15.6-25.3-51.87-52.62-47.53-6.08.97-9.71,7.37-7.95,13.26,16.13,54.13,32.25,108.27,48.38,162.38,2.14,7.19,4.29,14.66,3.01,22.04-1.35,7.85-6.79,14.86-14.06,18.13-7.25,3.25-16.12,2.62-22.86-1.58-10.45-6.5-14.37-19.54-17.48-31.42-13.49-51.44-27.97-101.88-41.46-153.34-2.1-8.01-10.13-12.19-17.87-9.27-4.52,1.71-5.92,2.23-10.83,4.24-5.93,2.42-9.32,8.72-8.06,15,11.26,55.82,22.53,111.65,33.79,167.47,1.46,7.33,2.94,14.99,1,22.21-2.06,7.7-12.46,15.94-19.98,18.53-7.53,2.58-16.29,1.18-22.63-3.63-9.81-7.43-12.54-20.75-14.57-32.88-8.22-49.15-16.46-98.28-24.69-147.42-1.13-6.78-8.52-10.5-14.65-7.39l-.1.05c-31.59,16.12-26.41,88.99-17.57,172.24,8.84,83.28,38.51,69.36,110.8,135.86,72.32,66.5,83.27,321.32,113.01,434.59,4.34,16.53,6.86,27.44,9.16,36.29,1.38,5.34,8.96,4.95,9.92-.48,4.34-24.43,19.99-53.62,53.36-80.28Z"/><path class="cls-1" d="M2002.53,378.37c-41.54-66.59-163.19-70.97-295.48,26.8-119.39,88.23-87.18,209.24-128.65,269.22-40.17,58.1-339.91,307.43-468.53,408.45-48.08,39.63-89.23,74.41-88.03,124.51.42,17.43,7.18,34.48,20.7,45.49,13.74,11.19,29.82,13.31,50.36,8.34,97.39-23.61,349.95-338.28,484.6-468.23,134.65-129.92,182.05-29.55,305.5-111.02,162.92-107.54,155.53-245.85,119.53-303.56Z"/></svg>